<svg width="24" height="24" viewBox="0 0 24 24" fill="none" xmlns="http://www.w3.org/2000/svg">
<path d="M16.9658 3.69658L16.9682 3.70118L17.675 5.0853L8.23365 9.93848H18.6065L17.4087 18.5902C17.3029 19.5304 16.4421 20.1785 15.5025 20.1785H9.31249C8.37622 20.1785 7.51209 19.5432 7.40621 18.5898L6.28995 10.5268L5.74884 9.47844C5.17989 8.379 5.62214 7.03924 6.71302 6.47455L6.71413 6.47397L13.9672 2.74242C15.059 2.19009 16.3978 2.61232 16.9658 3.69658ZM14.4186 3.63474L7.17273 7.36262C6.5641 7.67805 6.32615 8.4184 6.63691 9.01873L6.88824 9.50568L16.3308 4.65187L16.0789 4.15847C15.7664 3.56474 15.0272 3.3278 14.42 3.63404L14.4186 3.63474ZM8.39886 18.4678L8.3997 18.4757C8.43808 18.8376 8.79156 19.1785 9.31249 19.1785H15.5025C16.0201 19.1785 16.3771 18.8304 16.4154 18.4749L16.4162 18.4674L17.4585 10.9385H7.35648L8.39886 18.4678Z" fill="#3B3B3D" fill-opacity="1.0"/>
</svg>
