<svg width="16" height="16" viewBox="0 0 16 16" fill="none" xmlns="http://www.w3.org/2000/svg">
    <path
        d="M5 0C5.55229 0 6 0.447715 6 1V4L10 4V1C10 0.447715 10.4477 0 11 0C11.5523 0 12 0.447715 12 1V4H15C15.5523 4 16 4.44771 16 5C16 5.55228 15.5523 6 15 6H12V10H15C15.5523 10 16 10.4477 16 11C16 11.5523 15.5523 12 15 12H12V15C12 15.5523 11.5523 16 11 16C10.4477 16 10 15.5523 10 15V12L6 12V15C6 15.5523 5.55229 16 5 16C4.44771 16 4 15.5523 4 15V12H1C0.447715 12 0 11.5523 0 11C0 10.4477 0.447715 10 1 10H4V6H1C0.447715 6 0 5.55229 0 5C0 4.44771 0.447715 4 1 4H4V1C4 0.447715 4.44771 0 5 0ZM6 6V10L10 10V6L6 6Z"
        fill="#ffffff"/>
</svg>
