<svg width="24" height="24" viewBox="0 0 24 24" fill="none" xmlns="http://www.w3.org/2000/svg">
<path fill-rule="evenodd" clip-rule="evenodd" d="M19 2L15.9554 5.04463C14.7888 4.37981 13.4388 4 12 4C7.58172 4 4 7.58172 4 12H5C5 8.13401 8.13401 5 12 5C13.1603 5 14.2546 5.28229 15.2181 5.78193L12 9H19V2ZM18 4.41421L14.4142 8H18V4.41421Z" fill="#4DBB5F"/>
<path fill-rule="evenodd" clip-rule="evenodd" d="M11 15L7.78186 18.2181C8.7453 18.7177 9.83959 19 10.9998 19C14.8658 19 17.9998 15.866 17.9998 12H18.9998C18.9998 16.4183 15.4181 20 10.9998 20C9.56109 20 8.21108 19.6202 7.04456 18.9554L4 22V15L11 15ZM5 19.5858L8.58579 16H5L5 19.5858Z" fill="#4DBB5F"/>
</svg>
